Coordinates
version=1
nRows=13
nColumns=22
inDegrees=yes

Units are S.I. units (second, meters, Newtons, ...)
If the header above contains a line with 'inDegrees', this indicates whether rotational values are in degrees (yes) or radians (no).

endheader
time	pelvis_tilt	pelvis_list	pelvis_rotation	pelvis_tx	pelvis_ty	pelvis_tz	hip_flexion_r	hip_adduction_r	hip_rotation_r	knee_angle_r	ankle_angle_r	subtalar_angle_r	hip_flexion_l	hip_adduction_l	hip_rotation_l	knee_angle_l	ankle_angle_l	subtalar_angle_l	lumbar_extension	lumbar_bending	lumbar_rotation
      3.88000000	     -4.77384607	     -0.49406809	    -40.31723653	      1.31050996	      0.87349767	      1.08760524	     10.67886993	     -0.52511365	      3.78987693	    -15.82042043	     13.07945491	      2.07532966	     10.05639784	     -8.73504671	      0.53123518	    -20.58769751	     18.18699280	      8.25049828	     -1.68151944	      3.08745678	     12.25272747
      3.89000000	     -4.80152171	     -0.49320407	    -40.15110162	      1.31080541	      0.87349808	      1.08795501	     10.60192779	     -0.51331134	      3.66140655	    -15.73552138	     13.10848744	      2.02999462	     10.05028630	     -8.74837618	      0.67842448	    -20.51104628	     18.19411731	      8.29570849	     -1.66280771	      3.07196381	     12.35491595
      3.90000000	     -4.81581520	     -0.50125900	    -39.96822836	      1.31111293	      0.87351845	      1.08822823	     10.50617527	     -0.51231472	      3.49915889	    -15.64557841	     13.12948357	      1.98114751	     10.04835962	     -8.75569666	      0.82873851	    -20.46077650	     18.19116474	      8.35498077	     -1.66498361	      3.05791931	     12.44669172
      3.91000000	     -4.82800101	     -0.50870618	    -39.79313275	      1.31139593	      0.87353501	      1.08847472	     10.41873717	     -0.51167354	      3.35018808	    -15.56638006	     13.15181614	      1.93565166	     10.04462152	     -8.76227425	      0.96589616	    -20.40956691	     18.19093651	      8.42516575	     -1.67026102	      3.04386728	     12.54082929
      3.92000000	     -4.84226045	     -0.50931880	    -39.62818744	      1.31164833	      0.87353805	      1.08872120	     10.34730207	     -0.51256210	      3.20503175	    -15.50082234	     13.17821559	      1.89691753	     10.04501839	     -8.76834682	      1.08834316	    -20.35630825	     18.19158900	      8.50069631	     -1.66935119	      3.02295795	     12.63863030
      3.93000000	     -4.85734803	     -0.50316497	    -39.47445412	      1.31185764	      0.87352158	      1.08894542	     10.29824750	     -0.51638032	      3.06899219	    -15.45683659	     13.20862076	      1.86332257	     10.05399673	     -8.77124065	      1.19678216	    -20.30923165	     18.19084331	      8.57964606	     -1.66677704	      2.99794232	     12.73676920
      3.94000000	     -4.87521609	     -0.48728079	    -39.33598178	      1.31201867	      0.87348270	      1.08915788	     10.27634908	     -0.52339872	      2.94421938	    -15.43780395	     13.24578752	      1.83461798	     10.07209634	     -8.77013089	      1.29289001	    -20.26377207	     18.18951530	      8.65606532	     -1.65979182	      2.96614396	     12.83780385
      3.95000000	     -4.89174285	     -0.47102175	    -39.23513500	      1.31210754	      0.87343771	      1.08939687	     10.26269814	     -0.52128791	      2.87938869	    -15.42189784	     13.26928786	      1.82798484	     10.09610361	     -8.77579453	      1.33273557	    -20.24518064	     18.18988665	      8.67482791	     -1.65838665	      2.93047367	     12.97565580
      3.96000000	     -4.90921592	     -0.42075674	    -39.10716008	      1.31217946	      0.87333803	      1.08955781	     10.31605731	     -0.55640344	      2.73448913	    -15.48418777	     13.34991276	      1.78806253	     10.14088589	     -8.74166964	      1.45234034	    -20.19853744	     18.17331315	      8.78408401	     -1.63868431	      2.86605573	     13.04132667
      3.97000000	     -4.93008238	     -0.38757288	    -39.03453603	      1.31218817	      0.87325220	      1.08979073	     10.36839645	     -0.56106846	      2.66567412	    -15.54655908	     13.39627191	      1.77185896	     10.15929725	     -8.73657290	      1.50673624	    -20.14453380	     18.17622825	      8.82308372	     -1.63004917	      2.81898781	     13.16260921
      3.98000000	     -4.94424710	     -0.32496771	    -38.97433349	      1.31215036	      0.87312929	      1.09000207	     10.45669756	     -0.59320597	      2.60835888	    -15.64048755	     13.47571401	      1.74793491	     10.20925642	     -8.70166145	      1.55098055	    -20.12560137	     18.15959839	      8.86953462	     -1.61251053	      2.73950677	     13.27632635
      3.99000000	     -4.95902283	     -0.26812524	    -38.94174888	      1.31208906	      0.87301038	      1.09023177	     10.55553025	     -0.61599489	      2.57320807	    -15.75421615	     13.54646404	      1.72800961	     10.24108699	     -8.67518177	      1.58100844	    -20.08934189	     18.15186485	      8.89329929	     -1.60184192	      2.66864617	     13.40210604
      4.00000000	     -4.96856845	     -0.23204939	    -38.92623107	      1.31202002	      0.87291863	      1.09049473	     10.63520946	     -0.62023195	      2.55010429	    -15.86228854	     13.59401093	      1.71578454	     10.24222891	     -8.66508279	      1.60993280	    -20.04151822	     18.15350098	      8.89994569	     -1.60948549	      2.61305103	     13.51962826
